<svg xmlns="http://www.w3.org/2000/svg" width="48" height="48" enable-background="new 0 0 48 48" viewBox="0 0 48 48" id="add-package">
  <path d="M21,47.998c-0.459,0-0.918-0.104-1.336-0.313L1.66,38.623C0.653,38.12,0,37.062,0,35.93V11c0-0.34,0.172-0.656,0.458-0.84
		c0.285-0.184,0.645-0.21,0.955-0.071L21,18.962l19.587-8.874c0.311-0.139,0.669-0.113,0.955,0.071C41.828,10.344,42,10.66,42,11
		v18.52c0,0.326-0.159,0.631-0.426,0.818c-0.267,0.188-0.608,0.233-0.914,0.122C39.815,30.155,38.92,30,38,30c-4.411,0-8,3.589-8,8
		c0,1.435,0.387,2.842,1.119,4.067c0.142,0.239,0.179,0.525,0.101,0.792c-0.078,0.267-0.263,0.489-0.511,0.614l-8.37,4.21
		C21.919,47.893,21.459,47.998,21,47.998z M2,12.551V35.93c0,0.381,0.219,0.736,0.557,0.905l18.002,9.062
		c0.274,0.137,0.606,0.137,0.884-0.001l7.459-3.752C28.31,40.85,28,39.436,28,38c0-5.514,4.486-10,10-10
		c0.679,0,1.348,0.068,2,0.202V12.551l-18.587,8.42c-0.262,0.118-0.563,0.118-0.825,0L2,12.551z"></path>
  <path d="M21,21c-0.142,0-0.283-0.03-0.415-0.09l-20-9.113c-0.35-0.16-0.577-0.505-0.585-0.89c-0.008-0.384,0.206-0.739,0.548-0.913
		l19.105-9.673c0.843-0.427,1.85-0.427,2.692,0l19.106,9.673c0.343,0.173,0.556,0.528,0.548,0.913
		c-0.008,0.384-0.235,0.73-0.585,0.89l-20,9.113C21.283,20.97,21.142,21,21,21z M3.308,10.839L21,18.901l17.692-8.062l-17.25-8.733
		c-0.277-0.141-0.608-0.141-0.886,0l0,0L3.308,10.839z M20.105,1.214h0.01H20.105z"></path>
  <path d="M21 48c-.552 0-1-.448-1-1V20c0-.552.448-1 1-1s1 .448 1 1v27C22 47.552 21.552 48 21 48zM38 48c-3.522 0-6.818-1.882-8.602-4.913C28.484 41.557 28 39.796 28 38c0-5.514 4.486-10 10-10 1.152 0 2.276.195 3.34.58C45.32 29.978 48 33.765 48 38 48 43.514 43.514 48 38 48zM38 30c-4.411 0-8 3.589-8 8 0 1.435.387 2.842 1.119 4.067C32.548 44.495 35.183 46 38 46c4.411 0 8-3.589 8-8 0-3.387-2.143-6.416-5.332-7.537C39.815 30.155 38.92 30 38 30z"></path>
  <path d="M38,44c-0.552,0-1-0.448-1-1V33c0-0.552,0.448-1,1-1s1,0.448,1,1v10C39,43.552,38.552,44,38,44z"></path>
  <path d="M43,39H33c-0.552,0-1-0.448-1-1s0.448-1,1-1h10c0.552,0,1,0.448,1,1S43.552,39,43,39z"></path>
</svg>
